# xmcd CD database file
#
# Track frame offsets:
#	150
#	18002
#	39261
#	62963
#	76338
#	105220
#	126052
#	151277
#	168461
#	189224
#	215575
#
# Disc length: 3221 seconds
#
# Revision: 1
# Processed by: cddbd v1.5.2PL0 Copyright (c) Steve Scherf et al.
# Submitted via: CDex 1.70beta2
#
DISCID=7d0c930b
DTITLE=Chick Corea and Bela Fleck - The Enchantment
DYEAR=2007
DGENRE=Jazz
TTITLE0=Childrens's Song #6
TTITLE1=A Strange Romance
TTITLE2=Senorita
TTITLE3=Waltse For Abbey
TTITLE4=Joban Dna Nopia
TTITLE5=Sunset Road
TTITLE6=The Enchantment
TTITLE7=Mountain
TTITLE8=Spectacle
TTITLE9=Brazil
TTITLE10=Menagerie
EXTD=YEAR: 2007
EXTT0=
EXTT1=
EXTT2=
EXTT3=
EXTT4=
EXTT5=
EXTT6=
EXTT7=
EXTT8=
EXTT9=
EXTT10=
PLAYORDER=
